<svg xmlns="http://www.w3.org/2000/svg" width="32" height="32" viewBox="0 0 32 32">
<path fill='#FFFFFF' style="line-height:normal;text-indent:0;text-align:start;text-decoration-line:none;text-decoration-style:solid;text-decoration-color:#000;text-transform:none;block-progression:tb;white-space:normal;isolation:auto;mix-blend-mode:normal;solid-color:#FFFFFF;solid-opacity:1" d="M 15.0625 0.640625 L 15.0625 0.64648438 C 13.963149 0.64648438 13.0625 1.5471844 13.0625 2.6464844 L 13.0625 12.925781 L 10.541016 10.404297 C 9.7629135 9.6261969 8.4870777 9.6261969 7.7089844 10.404297 C 6.9309462 11.182497 6.9308976 12.458228 7.7089844 13.236328 L 7.7324219 13.257812 L 7.7597656 13.279297 C 9.1362001 14.325997 9.9019944 15.944353 10.861328 17.689453 C 11.775954 19.353253 12.944796 21.093812 15 22.382812 L 15 25 L 14.759766 25 C 14.347921 25 14 25.347966 14 25.759766 L 14 30.242188 C 14 30.653988 14.347921 31 14.759766 31 L 25.177734 31 C 25.589578 31 25.9375 30.653988 25.9375 30.242188 L 25.9375 25.759766 C 25.9375 25.347966 25.589578 25 25.177734 25 L 25 25 L 25 23.556641 C 25 21.827741 25.954684 20.140559 26 18.380859 L 26 18.369141 L 26 11.126953 C 26 10.027653 25.099351 9.1269531 24 9.1269531 C 23.525533 9.1269531 23.125263 9.3556656 22.78125 9.6347656 C 22.528819 8.8189656 21.895484 8.1582031 21 8.1582031 C 20.533501 8.1582031 20.11405 8.3350687 19.775391 8.6054688 C 19.494555 7.8392687 18.891154 7.2207031 18.03125 7.2207031 C 17.66596 7.2207031 17.359311 7.3924531 17.0625 7.5644531 L 17.0625 2.640625 C 17.0625 1.541325 16.161851 0.640625 15.0625 0.640625 z M 15.0625 1.6445312 C 15.625149 1.6445312 16.0625 2.0819313 16.0625 2.6445312 L 16.0625 8.9121094 L 17.052734 9.0117188 C 17.145534 8.5558188 17.534569 8.2246094 18.03125 8.2246094 C 18.593899 8.2246094 19.03125 8.6619094 19.03125 9.2246094 L 19.03125 9.8808594 L 20.021484 9.9824219 C 20.114874 9.5237219 20.517668 9.1640625 21 9.1640625 C 21.562649 9.1640625 22 9.6013625 22 10.164062 L 22 11.130859 L 23 11.130859 C 23 10.568259 23.437351 10.130859 24 10.130859 C 24.562649 10.130859 25 10.568259 25 11.130859 L 25 18.355469 C 24.96472 19.725569 24 21.490541 24 23.556641 L 24 25 L 16 25 L 16 21.873047 L 15.75 21.728516 C 13.719855 20.556416 12.67656 18.915784 11.738281 17.208984 C 10.810571 15.52141 10.003317 13.760223 8.4160156 12.527344 C 8.0188824 12.130244 8.0188338 11.506575 8.4160156 11.109375 C 8.8131223 10.712175 9.4368659 10.712175 9.8339844 11.109375 L 14.0625 15.337891 L 14.0625 2.6445312 C 14.0625 2.0819313 14.499851 1.6445312 15.0625 1.6445312 z M 15 26 L 24.9375 26 L 24.9375 30 L 15 30 L 15 26 z " color="#000" enable-background="accumulate" font-family="sans-serif" font-weight="400" overflow="visible"/>
</svg>
