<?xml version="1.0" encoding="UTF-8" standalone="no"?>
<svg
   xmlns:dc="http://purl.org/dc/elements/1.1/"
   xmlns:cc="http://creativecommons.org/ns#"
   xmlns:rdf="http://www.w3.org/1999/02/22-rdf-syntax-ns#"
   xmlns:svg="http://www.w3.org/2000/svg"
   xmlns="http://www.w3.org/2000/svg"
   width="6.5152473mm"
   height="6.5152473mm"
   viewBox="0 0 6.5152473 6.5152473"
   version="1.1"
   id="svg366">
  <defs
     id="defs360" />
  <metadata
     id="metadata363">
    <rdf:RDF>
      <cc:Work
         rdf:about="">
        <dc:format>image/svg+xml</dc:format>
        <dc:type
           rdf:resource="http://purl.org/dc/dcmitype/StillImage" />
        <dc:title></dc:title>
      </cc:Work>
    </rdf:RDF>
  </metadata>
  <g
     id="layer1"
     transform="translate(-51.926901,-95.772139)">
    <path
       style="fill:none;stroke:#404040;stroke-width:0.365;stroke-linecap:butt;stroke-linejoin:round;stroke-miterlimit:4;stroke-dasharray:none;stroke-opacity:1"
       d="m 56.091909,101.188 h -1.285024 c -0.182456,-0.0222 -0.372512,-0.23921 -0.525324,-0.46875 -0.323277,-0.40949 -0.573816,-1.231152 -0.913256,-1.761862 -0.105382,-0.23113 0.257803,-0.5509 0.492997,-0.35561 l 0.525324,0.53341 v -2.06089 c 0,-0.34495 0.646553,-0.3936 0.646553,0 v 1.31735 c 0,-0.41487 0.638471,-0.42032 0.638471,0 v 0.21013 c 0,-0.42541 0.654634,-0.36907 0.654634,-0.0323 v 0.24245 c 0,-0.42085 0.646553,-0.37192 0.646553,0 v 1.276952 c 0,0.37951 -0.302996,0.84441 -0.880928,1.09914 z"
       id="path6485-6" />
  </g>
</svg>
