<svg xmlns="http://www.w3.org/2000/svg" width="24.625" height="24.625" viewBox="0 0 6.515 6.515"><path style="fill:none;stroke:#404040;stroke-width:.365;stroke-linecap:butt;stroke-linejoin:round;stroke-miterlimit:4;stroke-dasharray:none;stroke-opacity:1" d="M56.092 101.188h-1.285c-.183-.022-.373-.24-.525-.469-.324-.41-.574-1.23-.914-1.762-.105-.23.258-.55.493-.355l.526.533v-2.06c0-.346.646-.394.646 0v1.317c0-.415.639-.42.639 0v.21c0-.426.654-.37.654-.033v.243c0-.42.647-.372.647 0v1.277c0 .38-.303.844-.881 1.099z" transform="translate(-51.927 -95.772)"/></svg>